<svg xmlns="http://www.w3.org/2000/svg" width="480" height="640" viewBox="0 0 480 640">
  <defs>
    <radialGradient id="wj0" cx="30%" cy="30%" r="60%">
      <stop offset="0%" stop-color="#60a5fa" stop-opacity="0.15"/>
      <stop offset="100%" stop-color="#60a5fa" stop-opacity="0"/>
    </radialGradient>
<radialGradient id="wj1" cx="75%" cy="80%" r="55%">
      <stop offset="0%" stop-color="#34d399" stop-opacity="0.12"/>
      <stop offset="100%" stop-color="#34d399" stop-opacity="0"/>
    </radialGradient>
  </defs>
  <rect width="480" height="640" fill="#0a0d12"/>
  <g stroke="#ffffff" stroke-opacity="0.03" stroke-width="1"><line x1="0" y1="0" x2="0" y2="640"/><line x1="40" y1="0" x2="40" y2="640"/><line x1="80" y1="0" x2="80" y2="640"/><line x1="120" y1="0" x2="120" y2="640"/><line x1="160" y1="0" x2="160" y2="640"/><line x1="200" y1="0" x2="200" y2="640"/><line x1="240" y1="0" x2="240" y2="640"/><line x1="280" y1="0" x2="280" y2="640"/><line x1="320" y1="0" x2="320" y2="640"/><line x1="360" y1="0" x2="360" y2="640"/><line x1="400" y1="0" x2="400" y2="640"/><line x1="440" y1="0" x2="440" y2="640"/><line x1="480" y1="0" x2="480" y2="640"/><line x1="0" y1="0" x2="480" y2="0"/><line x1="0" y1="40" x2="480" y2="40"/><line x1="0" y1="80" x2="480" y2="80"/><line x1="0" y1="120" x2="480" y2="120"/><line x1="0" y1="160" x2="480" y2="160"/><line x1="0" y1="200" x2="480" y2="200"/><line x1="0" y1="240" x2="480" y2="240"/><line x1="0" y1="280" x2="480" y2="280"/><line x1="0" y1="320" x2="480" y2="320"/><line x1="0" y1="360" x2="480" y2="360"/><line x1="0" y1="400" x2="480" y2="400"/><line x1="0" y1="440" x2="480" y2="440"/><line x1="0" y1="480" x2="480" y2="480"/><line x1="0" y1="520" x2="480" y2="520"/><line x1="0" y1="560" x2="480" y2="560"/><line x1="0" y1="600" x2="480" y2="600"/><line x1="0" y1="640" x2="480" y2="640"/></g>
  <rect width="480" height="640" fill="url(#wj0)"/>
<rect width="480" height="640" fill="url(#wj1)"/>
  
      <g fill="none" stroke="#ffffff" stroke-opacity="0.4" stroke-width="2">
        <path d="M160 290 h-40 m20 -20 v40"/>
      </g>
      <g fill="#34d399" fill-opacity="0.8">
        <circle cx="340" cy="270" r="7"/><circle cx="368" cy="298" r="7"/>
      </g>
      <g fill="#60a5fa" fill-opacity="0.6">
        <circle cx="312" cy="298" r="7"/><circle cx="340" cy="326" r="7"/>
      </g>
      <rect x="90" y="220" width="300" height="160" rx="40" fill="none" stroke="#ffffff" stroke-opacity="0.18" stroke-width="2"/>
      <g fill="#ffffff" fill-opacity="0.2">
        <rect x="140" y="460" width="28" height="8" rx="4"/><rect x="184" y="460" width="28" height="8" rx="4"/><rect x="228" y="460" width="28" height="8" rx="4"/><rect x="272" y="460" width="28" height="8" rx="4"/><rect x="316" y="460" width="28" height="8" rx="4"/>
      </g>
  <rect x="0.5" y="0.5" width="479" height="639" fill="none" stroke="#ffffff" stroke-opacity="0.06"/>
</svg>